<svg width="150" height="50" viewBox="0 0 150 50" fill="none" xmlns="http://www.w3.org/2000/svg">
<path d="M101.907 24.001V26.8647H100.112V28.7428H101.907V35.124C101.907 37.303 102.893 38.1745 105.373 38.1745C105.809 38.1745 106.224 38.1227 106.587 38.0604V36.2031C106.276 36.2342 106.078 36.255 105.736 36.255C104.626 36.255 104.138 35.7362 104.138 34.5533V28.7428H106.587V26.8647H104.138V24.001H101.907Z" fill="#75EEA5"/>
<path d="M112.904 38.3302C116.204 38.3302 118.227 36.1201 118.227 32.4574C118.227 28.8154 116.193 26.5949 112.904 26.5949C109.605 26.5949 107.571 28.8154 107.571 32.4574C107.571 36.1201 109.594 38.3302 112.904 38.3302ZM112.904 36.3484C110.964 36.3484 109.874 34.9269 109.874 32.4574C109.874 30.0086 110.964 28.5768 112.904 28.5768C114.834 28.5768 115.934 30.0086 115.934 32.4574C115.934 34.9165 114.834 36.3484 112.904 36.3484Z" fill="#75EEA5"/>
<path d="M119.958 38.1123H122.189V31.4405C122.189 29.853 123.382 28.7843 125.074 28.7843C125.468 28.7843 126.132 28.8569 126.319 28.9192V26.7195C126.08 26.6572 125.655 26.6261 125.323 26.6261C123.849 26.6261 122.594 27.4354 122.272 28.5456H122.106V26.8128H119.958V38.1123Z" fill="#75EEA5"/>
<path d="M131.858 28.4938C133.508 28.4938 134.587 29.6455 134.639 31.4198H128.932C129.056 29.6559 130.208 28.4938 131.858 28.4938ZM134.628 35.0617C134.213 35.9437 133.29 36.4314 131.941 36.4314C130.156 36.4314 129.004 35.1759 128.932 33.1941V33.0696H136.911V32.2914C136.911 28.7428 135.012 26.5949 131.868 26.5949C128.683 26.5949 126.659 28.888 126.659 32.4989C126.659 36.1097 128.641 38.3302 131.879 38.3302C134.462 38.3302 136.268 37.0851 136.776 35.0617H134.628Z" fill="#75EEA5"/>
<path d="M87.2779 33.9396C87.4499 36.7142 89.7621 38.4887 93.2035 38.4887C96.8815 38.4887 99.183 36.6282 99.183 33.66C99.183 31.3263 97.871 30.0357 94.6877 29.2937L92.9777 28.8743C90.9559 28.4011 90.1385 27.7666 90.1385 26.6589C90.1385 25.2608 91.4076 24.3467 93.3111 24.3467C95.1178 24.3467 96.3653 25.2393 96.5912 26.6696H98.9356C98.7958 24.0563 96.4944 22.2173 93.3434 22.2173C89.9557 22.2173 87.6973 24.0563 87.6973 26.8202C87.6973 29.1001 88.9771 30.4552 91.784 31.1112L93.7843 31.5951C95.8384 32.0791 96.7417 32.7889 96.7417 33.9718C96.7417 35.3484 95.3222 36.3486 93.3864 36.3486C91.3108 36.3486 89.8697 35.4129 89.6653 33.9396H87.2779Z" fill="#75EEA5"/>
<path d="M64.1687 26.6261C62.6331 26.6261 61.3049 27.3939 60.6201 28.6805H60.4541V26.8128H58.3063V41.8684H60.5371V36.4002H60.7135C61.3049 37.5935 62.5812 38.299 64.1895 38.299C67.0429 38.299 68.8586 36.0475 68.8586 32.4574C68.8586 28.8673 67.0429 26.6261 64.1687 26.6261ZM63.5358 36.2965C61.6681 36.2965 60.4956 34.8231 60.4956 32.4677C60.4956 30.102 61.6681 28.6286 63.5461 28.6286C65.4346 28.6286 66.5656 30.0709 66.5656 32.4574C66.5656 34.8542 65.4346 36.2965 63.5358 36.2965Z" fill="#75EEA5"/>
<path d="M76.6647 26.6261C75.1291 26.6261 73.8009 27.3939 73.1161 28.6805H72.9501V26.8128H70.8023V41.8684H73.0331V36.4002H73.2095C73.8009 37.5935 75.0772 38.299 76.6855 38.299C79.5388 38.299 81.3546 36.0475 81.3546 32.4574C81.3546 28.8673 79.5388 26.6261 76.6647 26.6261ZM76.0318 36.2965C74.1641 36.2965 72.9916 34.8231 72.9916 32.4677C72.9916 30.102 74.1641 28.6286 76.0421 28.6286C77.9306 28.6286 79.0616 30.0709 79.0616 32.4574C79.0616 34.8542 77.9306 36.2965 76.0318 36.2965Z" fill="#75EEA5"/>
<path d="M54.3038 38.1123H56.8633L51.2603 22.5937H48.6685L43.0654 38.1123H45.5389L46.9693 33.9933H52.8842L54.3038 38.1123ZM49.8407 25.4113H50.0235L52.2712 31.9715H47.5823L49.8407 25.4113Z" fill="#75EEA5"/>
<path d="M44.5635 10.8889V18.3751H47.2664C49.4973 18.3751 50.7891 17.0003 50.7891 14.6086C50.7891 12.2533 49.4869 10.8889 47.2664 10.8889H44.5635ZM45.7256 11.9472H47.1367C48.6879 11.9472 49.6062 12.9329 49.6062 14.6242C49.6062 16.3414 48.7035 17.3168 47.1367 17.3168H45.7256V11.9472Z" fill="#75EEA5"/>
<path d="M54.7454 18.4841C56.3952 18.4841 57.4069 17.379 57.4069 15.5477C57.4069 13.7267 56.39 12.6165 54.7454 12.6165C53.0956 12.6165 52.0788 13.7267 52.0788 15.5477C52.0788 17.379 53.0905 18.4841 54.7454 18.4841ZM54.7454 17.4932C53.7753 17.4932 53.2305 16.7824 53.2305 15.5477C53.2305 14.3233 53.7753 13.6074 54.7454 13.6074C55.7104 13.6074 56.2603 14.3233 56.2603 15.5477C56.2603 16.7772 55.7104 17.4932 54.7454 17.4932Z" fill="#75EEA5"/>
<path d="M66.022 12.7254H64.9066L63.9001 17.0366H63.812L62.6498 12.7254H61.5811L60.419 17.0366H60.336L59.3243 12.7254H58.1934L59.7498 18.3751H60.8963L62.0584 14.2144H62.1466L63.3139 18.3751H64.4708L66.022 12.7254Z" fill="#75EEA5"/>
<path d="M67.3066 18.3751H68.422V15.0704C68.422 14.1884 68.946 13.6385 69.7709 13.6385C70.5958 13.6385 70.9901 14.0898 70.9901 14.9977V18.3751H72.1055V14.7176C72.1055 13.3739 71.4103 12.6165 70.1496 12.6165C69.2988 12.6165 68.7385 12.9952 68.4635 13.6229H68.3805V12.7254H67.3066V18.3751Z" fill="#75EEA5"/>
<path d="M73.8621 18.3751H74.9775V10.5205H73.8621V18.3751Z" fill="#75EEA5"/>
<path d="M79.1726 18.4841C80.8223 18.4841 81.834 17.379 81.834 15.5477C81.834 13.7267 80.8171 12.6165 79.1726 12.6165C77.5228 12.6165 76.5059 13.7267 76.5059 15.5477C76.5059 17.379 77.5176 18.4841 79.1726 18.4841ZM79.1726 17.4932C78.2024 17.4932 77.6577 16.7824 77.6577 15.5477C77.6577 14.3233 78.2024 13.6074 79.1726 13.6074C80.1375 13.6074 80.6874 14.3233 80.6874 15.5477C80.6874 16.7772 80.1375 17.4932 79.1726 17.4932Z" fill="#75EEA5"/>
<path d="M85.1574 17.5295C84.5504 17.5295 84.1094 17.2338 84.1094 16.7253C84.1094 16.2273 84.4622 15.9627 85.2404 15.9108L86.6204 15.8226V16.2947C86.6204 16.9951 85.9979 17.5295 85.1574 17.5295ZM84.8721 18.4685C85.614 18.4685 86.2313 18.1469 86.5685 17.5814H86.6567V18.3751H87.7307V14.5153C87.7307 13.322 86.9317 12.6165 85.5154 12.6165C84.2339 12.6165 83.3209 13.239 83.2067 14.2092H84.2858C84.4103 13.8097 84.8409 13.5814 85.4635 13.5814C86.2261 13.5814 86.6204 13.9186 86.6204 14.5153V15.0029L85.09 15.0911C83.7463 15.1741 82.9888 15.7604 82.9888 16.7772C82.9888 17.8096 83.7826 18.4685 84.8721 18.4685Z" fill="#75EEA5"/>
<path d="M91.5158 18.4685C92.294 18.4685 92.9529 18.1002 93.2901 17.4828H93.3783V18.3751H94.447V10.5205H93.3316V13.6229H93.2486C92.9425 13.0004 92.2888 12.632 91.5158 12.632C90.0891 12.632 89.1708 13.763 89.1708 15.5477C89.1708 17.3375 90.0787 18.4685 91.5158 18.4685ZM91.8323 13.6333C92.7661 13.6333 93.3524 14.3752 93.3524 15.5529C93.3524 16.7357 92.7713 17.4672 91.8323 17.4672C90.8881 17.4672 90.3226 16.7461 90.3226 15.5477C90.3226 14.3596 90.8932 13.6333 91.8323 13.6333Z" fill="#75EEA5"/>
<path d="M101.68 18.4841C103.33 18.4841 104.342 17.379 104.342 15.5477C104.342 13.7267 103.325 12.6165 101.68 12.6165C100.03 12.6165 99.0135 13.7267 99.0135 15.5477C99.0135 17.379 100.025 18.4841 101.68 18.4841ZM101.68 17.4932C100.71 17.4932 100.165 16.7824 100.165 15.5477C100.165 14.3233 100.71 13.6074 101.68 13.6074C102.645 13.6074 103.195 14.3233 103.195 15.5477C103.195 16.7772 102.645 17.4932 101.68 17.4932Z" fill="#75EEA5"/>
<path d="M105.818 18.3751H106.933V15.0704C106.933 14.1884 107.457 13.6385 108.282 13.6385C109.107 13.6385 109.502 14.0898 109.502 14.9977V18.3751H110.617V14.7176C110.617 13.3739 109.922 12.6165 108.661 12.6165C107.81 12.6165 107.25 12.9952 106.975 13.6229H106.892V12.7254H105.818V18.3751Z" fill="#75EEA5"/>
<path d="M115.754 11.3195V12.7513H114.857V13.6904H115.754V16.881C115.754 17.9705 116.247 18.4062 117.487 18.4062C117.705 18.4062 117.912 18.3803 118.094 18.3492V17.4205C117.938 17.4361 117.84 17.4465 117.668 17.4465C117.113 17.4465 116.87 17.1871 116.87 16.5956V13.6904H118.094V12.7513H116.87V11.3195H115.754Z" fill="#75EEA5"/>
<path d="M119.591 18.3751H120.707V15.0756C120.707 14.2195 121.215 13.6437 122.128 13.6437C122.917 13.6437 123.337 14.1002 123.337 15.0029V18.3751H124.452V14.728C124.452 13.3843 123.71 12.6216 122.507 12.6216C121.656 12.6216 121.059 13.0004 120.784 13.6333H120.696V10.5205H119.591V18.3751Z" fill="#75EEA5"/>
<path d="M128.476 13.5659C129.301 13.5659 129.841 14.1417 129.866 15.0289H127.013C127.075 14.1469 127.651 13.5659 128.476 13.5659ZM129.861 16.8499C129.654 17.2908 129.192 17.5347 128.518 17.5347C127.625 17.5347 127.049 16.9069 127.013 15.916V15.8538H131.003V15.4647C131.003 13.6904 130.053 12.6165 128.481 12.6165C126.889 12.6165 125.877 13.763 125.877 15.5684C125.877 17.3738 126.868 18.4841 128.486 18.4841C129.778 18.4841 130.681 17.8615 130.935 16.8499H129.861Z" fill="#75EEA5"/>
<path d="M30.9615 25.3758C30.9886 23.2746 32.117 21.2863 33.9072 20.1858C32.7778 18.5729 30.8862 17.5502 28.9182 17.4887C26.8192 17.2683 24.7842 18.7447 23.7146 18.7447C22.6243 18.7447 20.9774 17.5105 19.204 17.547C16.8924 17.6217 14.7375 18.9359 13.6128 20.9569C11.1953 25.1424 12.9986 31.2937 15.3143 34.677C16.473 36.3337 17.8271 38.1842 19.5989 38.1186C21.3327 38.0467 21.9802 37.013 24.0731 37.013C26.1466 37.013 26.7541 38.1186 28.5619 38.0769C30.4223 38.0467 31.5945 36.4128 32.7125 34.7404C33.545 33.56 34.1856 32.2553 34.6105 30.8748C32.4241 29.9501 30.964 27.7498 30.9615 25.3758Z" fill="#75EEA5"/>
<path d="M27.5469 15.2637C28.5613 14.0459 29.0611 12.4807 28.9401 10.9004C27.3903 11.0632 25.9587 11.8039 24.9306 12.9749C23.9252 14.1191 23.402 15.6568 23.5009 17.1766C25.0513 17.1926 26.5754 16.472 27.5469 15.2637Z" fill="#75EEA5"/>
<rect x="0.5" y="0.5" width="149" height="49" rx="6.5" stroke="#75EEA5"/>
</svg>
