<svg width="169" height="50" viewBox="0 0 169 50" fill="none" xmlns="http://www.w3.org/2000/svg">
<path d="M85.1702 27.1891C82.2302 27.1891 79.834 29.4253 79.834 32.5053C79.834 35.5666 82.2302 37.8216 85.1702 37.8216C88.1115 37.8216 90.5077 35.5666 90.5077 32.5053C90.5065 29.4253 88.1102 27.1891 85.1702 27.1891ZM85.1702 35.7291C83.559 35.7291 82.1702 34.4003 82.1702 32.5066C82.1702 30.5928 83.5602 29.2841 85.1702 29.2841C86.7815 29.2841 88.1702 30.5928 88.1702 32.5066C88.1702 34.3991 86.7815 35.7291 85.1702 35.7291ZM73.5277 27.1891C70.5877 27.1891 68.1915 29.4253 68.1915 32.5053C68.1915 35.5666 70.5877 37.8216 73.5277 37.8216C76.469 37.8216 78.8652 35.5666 78.8652 32.5053C78.8652 29.4253 76.469 27.1891 73.5277 27.1891ZM73.5277 35.7291C71.9165 35.7291 70.5277 34.4003 70.5277 32.5066C70.5277 30.5928 71.9177 29.2841 73.5277 29.2841C75.139 29.2841 76.5277 30.5928 76.5277 32.5066C76.529 34.3991 75.139 35.7291 73.5277 35.7291ZM59.6802 28.8216V31.0766H65.0777C64.9165 32.3453 64.494 33.2716 63.849 33.9153C63.064 34.7003 61.8352 35.5666 59.6802 35.5666C56.3577 35.5666 53.7602 32.8878 53.7602 29.5653C53.7602 26.2428 56.3577 23.5641 59.6802 23.5641C61.4727 23.5641 62.7815 24.2691 63.7477 25.1753L65.339 23.5841C63.989 22.2953 62.1977 21.3091 59.6802 21.3091C55.129 21.3091 51.3027 25.0141 51.3027 29.5653C51.3027 34.1166 55.129 37.8216 59.6802 37.8216C62.1365 37.8216 63.9902 37.0153 65.439 35.5053C66.929 34.0153 67.3927 31.9203 67.3927 30.2291C67.3927 29.7066 67.3527 29.2228 67.2715 28.8203H59.6802V28.8216ZM116.315 30.5728C115.873 29.3853 114.523 27.1891 111.764 27.1891C109.025 27.1891 106.749 29.3441 106.749 32.5053C106.749 35.4853 109.005 37.8216 112.025 37.8216C114.461 37.8216 115.871 36.3316 116.456 35.4653L114.644 34.2566C114.04 35.1428 113.214 35.7266 112.025 35.7266C110.838 35.7266 109.991 35.1828 109.448 34.1153L116.556 31.1753L116.315 30.5728ZM109.065 32.3453C109.005 30.2903 110.656 29.2441 111.845 29.2441C112.771 29.2441 113.556 29.7078 113.819 30.3716L109.065 32.3453ZM103.286 37.5003H105.621V21.8741H103.286V37.5003ZM99.459 28.3778H99.379C98.8552 27.7528 97.8477 27.1891 96.5802 27.1891C93.9215 27.1891 91.4852 29.5253 91.4852 32.5266C91.4852 35.5066 93.9215 37.8228 96.5802 37.8228C97.849 37.8228 98.8552 37.2591 99.379 36.6153H99.459V37.3803C99.459 39.4141 98.3715 40.5016 96.6202 40.5016C95.1902 40.5016 94.304 39.4753 93.9415 38.6091L91.9077 39.4553C92.4915 40.8641 94.0415 42.5966 96.6202 42.5966C99.359 42.5966 101.675 40.9853 101.675 37.0578V27.5128H99.4602V28.3778H99.459ZM96.7815 35.7291C95.1702 35.7291 93.8215 34.3791 93.8215 32.5266C93.8215 30.6528 95.1702 29.2841 96.7815 29.2841C98.3715 29.2841 99.6202 30.6528 99.6202 32.5266C99.6202 34.3791 98.3715 35.7291 96.7815 35.7291ZM127.258 21.8741H121.669V37.5003H124V31.5803H127.256C129.841 31.5803 132.384 29.7091 132.384 26.7278C132.384 23.7466 129.843 21.8741 127.258 21.8741ZM127.318 29.4053H124V24.0491H127.318C129.061 24.0491 130.051 25.4928 130.051 26.7278C130.051 27.9378 129.061 29.4053 127.318 29.4053ZM141.733 27.1616C140.044 27.1616 138.295 27.9053 137.571 29.5541L139.641 30.4178C140.084 29.5541 140.909 29.2716 141.773 29.2716C142.979 29.2716 144.205 29.9953 144.225 31.2816V31.4428C143.803 31.2016 142.898 30.8403 141.793 30.8403C139.561 30.8403 137.289 32.0666 137.289 34.3578C137.289 36.4491 139.119 37.7953 141.169 37.7953C142.736 37.7953 143.601 37.0916 144.144 36.2666H144.224V37.4728H146.476V31.4816C146.478 28.7091 144.405 27.1616 141.733 27.1616ZM141.45 35.7253C140.688 35.7253 139.621 35.3428 139.621 34.3978C139.621 33.1916 140.949 32.7291 142.095 32.7291C143.119 32.7291 143.603 32.9503 144.225 33.2516C144.044 34.7003 142.798 35.7253 141.45 35.7253ZM154.679 27.5028L152.005 34.2778H151.925L149.15 27.5028H146.638L150.799 36.9716L148.426 42.2391H150.859L157.273 27.5028H154.679ZM133.671 37.5003H136.003V21.8741H133.671V37.5003Z" fill="#75EEA5"/>
<path d="M59.2729 12.8035C59.2729 13.851 58.9629 14.6847 58.3417 15.3072C57.6367 16.0472 56.7167 16.4172 55.5867 16.4172C54.5042 16.4172 53.5829 16.0422 52.8267 15.2922C52.0692 14.541 51.6904 13.611 51.6904 12.501C51.6904 11.3897 52.0692 10.4597 52.8267 9.70975C53.5829 8.9585 54.5042 8.5835 55.5867 8.5835C56.1242 8.5835 56.6379 8.6885 57.1254 8.89725C57.6142 9.10725 58.0054 9.386 58.2979 9.73475L57.6392 10.3947C57.1429 9.801 56.4592 9.50475 55.5854 9.50475C54.7954 9.50475 54.1129 9.78225 53.5367 10.3372C52.9604 10.8922 52.6729 11.6135 52.6729 12.4997C52.6729 13.386 52.9604 14.1072 53.5367 14.6622C54.1129 15.2172 54.7954 15.4947 55.5854 15.4947C56.4229 15.4947 57.1217 15.216 57.6804 14.6572C58.0429 14.2935 58.2529 13.7872 58.3092 13.1385H55.5854V12.2372H59.2192C59.2567 12.4335 59.2729 12.6222 59.2729 12.8035Z" fill="#75EEA5"/>
<path d="M65.0355 9.67107H61.6206V12.0486H64.7005V12.9498H61.6206V15.3273H65.0355V16.2498H60.6568V8.74982H65.0355V9.67107Z" fill="#75EEA5"/>
<path d="M69.0992 16.2498H68.1354V9.67107H66.0404V8.74982H71.1942V9.67107H69.0992V16.2498Z" fill="#75EEA5"/>
<path d="M74.9229 16.2498V8.74982H75.8866V16.2498H74.9229Z" fill="#75EEA5"/>
<path d="M80.1606 16.2498H79.1968V9.67107H77.1018V8.74982H82.2556V9.67107H80.1606V16.2498Z" fill="#75EEA5"/>
<path d="M92.0115 15.2811C91.274 16.0386 90.3578 16.4173 89.2615 16.4173C88.1653 16.4173 87.249 16.0386 86.5128 15.2811C85.7753 14.5236 85.4078 13.5961 85.4078 12.4998C85.4078 11.4036 85.7753 10.4761 86.5128 9.71855C87.249 8.96105 88.1653 8.58105 89.2615 8.58105C90.3515 8.58105 91.2665 8.9623 92.0065 9.72355C92.7465 10.4848 93.1165 11.4098 93.1165 12.4998C93.1165 13.5961 92.7478 14.5236 92.0115 15.2811ZM87.224 14.6523C87.779 15.2148 88.4578 15.4948 89.2615 15.4948C90.0653 15.4948 90.7453 15.2136 91.299 14.6523C91.854 14.0898 92.1328 13.3723 92.1328 12.4998C92.1328 11.6273 91.854 10.9098 91.299 10.3473C90.7453 9.7848 90.0653 9.50481 89.2615 9.50481C88.4578 9.50481 87.779 9.78605 87.224 10.3473C86.6703 10.9098 86.3915 11.6273 86.3915 12.4998C86.3915 13.3723 86.6703 14.0898 87.224 14.6523Z" fill="#75EEA5"/>
<path d="M94.4691 16.2498V8.74982H95.6416L99.2866 14.5836H99.3278L99.2866 13.1386V8.74982H100.25V16.2498H99.2441L95.4303 10.1323H95.3891L95.4303 11.5773V16.2498H94.4691Z" fill="#75EEA5"/>
<path d="M59.2729 12.8035C59.2729 13.851 58.9629 14.6847 58.3417 15.3072C57.6367 16.0472 56.7167 16.4172 55.5867 16.4172C54.5042 16.4172 53.5829 16.0422 52.8267 15.2922C52.0692 14.541 51.6904 13.611 51.6904 12.501C51.6904 11.3897 52.0692 10.4597 52.8267 9.70975C53.5829 8.9585 54.5042 8.5835 55.5867 8.5835C56.1242 8.5835 56.6379 8.6885 57.1254 8.89725C57.6142 9.10725 58.0054 9.386 58.2979 9.73475L57.6392 10.3947C57.1429 9.801 56.4592 9.50475 55.5854 9.50475C54.7954 9.50475 54.1129 9.78225 53.5367 10.3372C52.9604 10.8922 52.6729 11.6135 52.6729 12.4997C52.6729 13.386 52.9604 14.1072 53.5367 14.6622C54.1129 15.2172 54.7954 15.4947 55.5854 15.4947C56.4229 15.4947 57.1217 15.216 57.6804 14.6572C58.0429 14.2935 58.2529 13.7872 58.3092 13.1385H55.5854V12.2372H59.2192C59.2567 12.4335 59.2729 12.6222 59.2729 12.8035Z" stroke="#75EEA5" stroke-width="0.2" stroke-miterlimit="10"/>
<path d="M65.0355 9.67107H61.6206V12.0486H64.7005V12.9498H61.6206V15.3273H65.0355V16.2498H60.6568V8.74982H65.0355V9.67107Z" stroke="#75EEA5" stroke-width="0.2" stroke-miterlimit="10"/>
<path d="M69.0992 16.2498H68.1354V9.67107H66.0404V8.74982H71.1942V9.67107H69.0992V16.2498Z" stroke="#75EEA5" stroke-width="0.2" stroke-miterlimit="10"/>
<path d="M74.9229 16.2498V8.74982H75.8866V16.2498H74.9229Z" stroke="#75EEA5" stroke-width="0.2" stroke-miterlimit="10"/>
<path d="M80.1606 16.2498H79.1968V9.67107H77.1018V8.74982H82.2556V9.67107H80.1606V16.2498Z" stroke="#75EEA5" stroke-width="0.2" stroke-miterlimit="10"/>
<path d="M92.0115 15.2811C91.274 16.0386 90.3578 16.4173 89.2615 16.4173C88.1653 16.4173 87.249 16.0386 86.5128 15.2811C85.7753 14.5236 85.4078 13.5961 85.4078 12.4998C85.4078 11.4036 85.7753 10.4761 86.5128 9.71855C87.249 8.96105 88.1653 8.58105 89.2615 8.58105C90.3515 8.58105 91.2665 8.9623 92.0065 9.72355C92.7465 10.4848 93.1165 11.4098 93.1165 12.4998C93.1165 13.5961 92.7478 14.5236 92.0115 15.2811ZM87.224 14.6523C87.779 15.2148 88.4578 15.4948 89.2615 15.4948C90.0653 15.4948 90.7453 15.2136 91.299 14.6523C91.854 14.0898 92.1328 13.3723 92.1328 12.4998C92.1328 11.6273 91.854 10.9098 91.299 10.3473C90.7453 9.7848 90.0653 9.50481 89.2615 9.50481C88.4578 9.50481 87.779 9.78605 87.224 10.3473C86.6703 10.9098 86.3915 11.6273 86.3915 12.4998C86.3915 13.3723 86.6703 14.0898 87.224 14.6523Z" stroke="#75EEA5" stroke-width="0.2" stroke-miterlimit="10"/>
<path d="M94.4691 16.2498V8.74982H95.6416L99.2866 14.5836H99.3278L99.2866 13.1386V8.74982H100.25V16.2498H99.2441L95.4303 10.1323H95.3891L95.4303 11.5773V16.2498H94.4691Z" stroke="#75EEA5" stroke-width="0.2" stroke-miterlimit="10"/>
<path fill-rule="evenodd" clip-rule="evenodd" d="M12.7523 9.83867C12.5686 10.1932 12.4658 10.6439 12.4658 11.1789V38.8238C12.4658 39.36 12.5687 39.8106 12.7526 40.1649L27.9145 25.0009L12.7523 9.83867ZM13.4446 40.8872C14.0157 41.1921 14.791 41.1402 15.6421 40.6576L33.4512 30.5376L28.6216 25.708L13.4446 40.8872ZM34.3538 30.026L40.0183 26.8076C41.7646 25.8139 41.7646 24.1901 40.0183 23.1976L34.3513 19.9775L29.3286 25.0008L34.3538 30.026ZM33.4495 19.465L15.6421 9.34636C14.791 8.86272 14.0156 8.81146 13.4445 9.11672L28.6215 24.2937L33.4495 19.465Z" fill="#75EEA5"/>
<rect x="0.5" y="0.5" width="167.75" height="49" rx="4.5" stroke="#75EEA5"/>
</svg>
