<svg width="167" height="50" viewBox="0 0 167 50" fill="none" xmlns="http://www.w3.org/2000/svg">
<path d="M56.7456 31.7646H61.1153L59.5509 27.5768C59.3356 26.9983 59.1239 26.3594 58.9153 25.6595C58.7269 26.2786 58.5216 26.9108 58.2996 27.5566L56.7456 31.7646ZM61.8619 33.7526H56.0089L54.5763 37.668H52.0029L57.7346 23.046H60.1666L66.0296 37.668H63.3253L61.8619 33.7526Z" fill="#75EEA5"/>
<path d="M73.6206 35.009C74.1286 34.3263 74.3826 33.3288 74.3826 32.0169C74.3826 30.7995 74.1723 29.9163 73.7519 29.3678C73.3313 28.8197 72.7713 28.5456 72.0716 28.5456C71.5873 28.5456 71.1399 28.6602 70.7296 28.8887C70.3193 29.1174 69.9289 29.4234 69.5589 29.8069V35.6397C69.8079 35.7607 70.0973 35.8566 70.4269 35.927C70.7566 35.998 71.083 36.0333 71.4056 36.0333C72.3746 36.0333 73.1126 35.6917 73.6206 35.009ZM67.0666 29.4437C67.0666 28.6365 67.0396 27.7483 66.986 26.7797H69.3269C69.4143 27.2305 69.475 27.6914 69.5086 28.1621C70.4773 27.1061 71.5873 26.5777 72.8386 26.5777C73.5653 26.5777 74.238 26.7611 74.857 27.1276C75.4756 27.4944 75.9753 28.0729 76.3553 28.8633C76.7356 29.6539 76.9256 30.6582 76.9256 31.8757C76.9256 33.1471 76.7086 34.2337 76.2746 35.135C75.8406 36.0367 75.2336 36.7193 74.4533 37.1837C73.6729 37.6477 72.7713 37.8799 71.749 37.8799C71.0086 37.8799 70.2786 37.7553 69.5589 37.5066V42.007L67.0666 42.219V29.4437Z" fill="#75EEA5"/>
<path d="M84.9923 35.009C85.5003 34.3263 85.7543 33.3288 85.7543 32.0169C85.7543 30.7995 85.5439 29.9163 85.1236 29.3678C84.7029 28.8197 84.1429 28.5456 83.4433 28.5456C82.9589 28.5456 82.5116 28.6602 82.1013 28.8887C81.6906 29.1174 81.3006 29.4234 80.9306 29.8069V35.6397C81.1796 35.7607 81.4686 35.8566 81.7986 35.927C82.1279 35.998 82.4543 36.0333 82.7773 36.0333C83.7459 36.0333 84.4843 35.6917 84.9923 35.009ZM78.4379 29.4437C78.4379 28.6365 78.4109 27.7483 78.3573 26.7797H80.6986C80.7859 27.2305 80.8466 27.6914 80.8803 28.1621C81.849 27.1061 82.9589 26.5777 84.2103 26.5777C84.9369 26.5777 85.6093 26.7611 86.2286 27.1276C86.8473 27.4944 87.3469 28.0729 87.7273 28.8633C88.1069 29.6539 88.2973 30.6582 88.2973 31.8757C88.2973 33.1471 88.0799 34.2337 87.6463 35.135C87.2123 36.0367 86.6049 36.7193 85.8249 37.1837C85.0443 37.6477 84.1429 37.8799 83.1203 37.8799C82.3803 37.8799 81.6503 37.7553 80.9306 37.5066V42.007L78.4379 42.219V29.4437Z" fill="#75EEA5"/>
<path d="M92.8759 36.9767C91.7993 36.3816 90.9719 35.5286 90.3936 34.4186C89.8146 33.3086 89.5256 31.9967 89.5256 30.4831C89.5256 28.8418 89.8586 27.4473 90.5246 26.3001C91.1906 25.1534 92.0973 24.2922 93.2439 23.7169C94.3913 23.1418 95.6776 22.8542 97.1043 22.8542C97.945 22.8542 98.7473 22.9467 99.511 23.1316C100.274 23.3168 100.986 23.5706 101.645 23.8936L101.009 25.8108C99.6839 25.1785 98.4193 24.8622 97.2153 24.8622C96.1993 24.8622 95.3096 25.0793 94.5463 25.5133C93.7826 25.9473 93.1886 26.5846 92.765 27.4255C92.341 28.2665 92.1293 29.2823 92.1293 30.4729C92.1293 31.516 92.2923 32.4408 92.6183 33.248C92.945 34.0553 93.4596 34.6947 94.1626 35.1654C94.8656 35.6363 95.7519 35.8716 96.8216 35.8716C97.3059 35.8716 97.7903 35.8314 98.2746 35.7507C98.759 35.6701 99.2133 35.5523 99.6369 35.3974V32.4408H96.2566V30.5033H102.059V36.659C101.225 37.049 100.348 37.3487 99.4303 37.557C98.5116 37.7654 97.5986 37.8697 96.6903 37.8697C95.2236 37.8697 93.9519 37.5724 92.8759 36.9767Z" fill="#75EEA5"/>
<path d="M109.423 35.6496C109.941 35.401 110.365 35.0913 110.694 34.7214V32.7031C110.015 32.6293 109.46 32.5922 109.029 32.5922C108 32.5922 107.288 32.7585 106.895 33.0918C106.501 33.4243 106.305 33.8737 106.305 34.4387C106.305 34.9773 106.448 35.3757 106.734 35.6346C107.02 35.8936 107.408 36.023 107.899 36.023C108.397 36.023 108.905 35.8987 109.423 35.6496ZM110.916 37.668C110.829 37.244 110.771 36.7633 110.745 36.225C110.361 36.6827 109.862 37.071 109.246 37.3906C108.631 37.71 107.936 37.8697 107.162 37.8697C106.537 37.8697 105.967 37.747 105.452 37.5013C104.938 37.256 104.529 36.8859 104.226 36.3913C103.923 35.897 103.772 35.2934 103.772 34.5799C103.772 33.524 104.152 32.6812 104.912 32.0521C105.672 31.4232 106.94 31.1087 108.716 31.1087C109.382 31.1087 110.042 31.156 110.694 31.25V31.0382C110.694 30.0762 110.489 29.3984 110.079 29.0046C109.668 28.6113 109.08 28.4145 108.313 28.4145C107.781 28.4145 107.213 28.4919 106.607 28.6465C106.002 28.8014 105.47 28.9863 105.013 29.2016L104.619 27.3852C105.063 27.1832 105.649 26.9983 106.375 26.8301C107.102 26.6621 107.869 26.5777 108.676 26.5777C109.618 26.5777 110.418 26.7207 111.078 27.0065C111.737 27.2926 112.252 27.7839 112.622 28.4798C112.992 29.1764 113.177 30.1133 113.177 31.2904V35.6193C113.177 36.0703 113.203 36.7534 113.257 37.668H110.916Z" fill="#75EEA5"/>
<path d="M115.089 35.0543V22.1882L117.571 21.9863V34.6103C117.571 35.0746 117.65 35.4023 117.808 35.5943C117.966 35.7857 118.217 35.882 118.56 35.882C118.715 35.882 118.934 35.8451 119.216 35.771L119.509 37.557C119.273 37.6513 118.986 37.727 118.646 37.784C118.306 37.841 117.985 37.8697 117.682 37.8697C115.953 37.8697 115.089 36.9314 115.089 35.0543Z" fill="#75EEA5"/>
<path d="M121.295 35.0543V22.1882L123.777 21.9863V34.6103C123.777 35.0746 123.856 35.4023 124.014 35.5943C124.173 35.7857 124.423 35.882 124.766 35.882C124.921 35.882 125.14 35.8451 125.422 35.771L125.715 37.557C125.479 37.6513 125.192 37.727 124.852 37.784C124.512 37.841 124.191 37.8697 123.888 37.8697C122.159 37.8697 121.295 36.9314 121.295 35.0543Z" fill="#75EEA5"/>
<path d="M133.494 30.9574C133.444 30.0896 133.227 29.4388 132.837 29.0046C132.447 28.571 131.924 28.3538 131.274 28.3538C130.64 28.3538 130.114 28.5727 129.694 29.0098C129.274 29.4473 128.997 30.0964 128.87 30.9574H133.494ZM135.924 32.5417H128.8C128.914 34.8224 130 35.9626 132.06 35.9626C132.57 35.9626 133.094 35.9004 133.63 35.776C134.164 35.6513 134.677 35.485 135.167 35.2763L135.714 36.9816C134.494 37.574 133.127 37.8697 131.607 37.8697C130.447 37.8697 129.474 37.6513 128.68 37.2139C127.884 36.7767 127.287 36.1477 126.887 35.3267C126.488 34.5064 126.287 33.5173 126.287 32.36C126.287 31.156 126.499 30.1198 126.924 29.252C127.347 28.3841 127.937 27.7216 128.694 27.2641C129.45 26.8066 130.324 26.5777 131.314 26.5777C132.344 26.5777 133.2 26.8184 133.89 27.2995C134.58 27.7802 135.09 28.4212 135.424 29.2216C135.757 30.0225 135.924 30.9069 135.924 31.8757V32.5417Z" fill="#75EEA5"/>
<path d="M137.81 29.5143C137.81 28.9158 137.78 28.0043 137.727 26.7797H140.06C140.1 27.0824 140.137 27.444 140.177 27.8646C140.214 28.2849 140.237 28.6263 140.25 28.8887C140.54 28.4111 140.824 28.0091 141.104 27.6829C141.384 27.3564 141.71 27.0909 142.084 26.8854C142.457 26.6803 142.88 26.5777 143.36 26.5777C143.744 26.5777 144.07 26.6182 144.347 26.699L144.034 28.8585C143.794 28.7845 143.524 28.7474 143.227 28.7474C142.644 28.7474 142.13 28.8971 141.694 29.1966C141.257 29.4957 140.79 29.9885 140.29 30.6747V37.668H137.81V29.5143Z" fill="#75EEA5"/>
<path d="M145.747 42.123C145.384 42.0594 145.084 41.987 144.85 41.9064L145.304 40.09C145.47 40.1367 145.684 40.1823 145.94 40.226C146.194 40.2701 146.437 40.2917 146.667 40.2917C147.77 40.2917 148.597 39.5816 149.147 38.1624L149.31 37.7587L145.294 26.7797H147.967L149.987 32.915C150.314 33.9647 150.527 34.7686 150.62 35.3267C150.81 34.5397 151.03 33.7526 151.287 32.9655L153.337 26.7797H155.847L151.844 37.8094C151.467 38.852 151.057 39.6927 150.62 40.332C150.184 40.971 149.667 41.4453 149.074 41.7549C148.477 42.0641 147.76 42.219 146.917 42.219C146.5 42.219 146.11 42.1874 145.747 42.123Z" fill="#75EEA5"/>
<path d="M51.9912 9.12632H56.4339L56.3089 10.1993H53.2932V12.2773H56.1369V13.2826H53.2932V15.5846H56.4702L56.3609 16.6679H51.9912V9.12632Z" fill="#75EEA5"/>
<path d="M59.4962 12.819L57.1525 9.12632H58.6315L60.2202 11.84L61.8922 9.12632H63.3295L61.0065 12.772L63.5222 16.6679H62.0222L60.2255 13.6993L58.3972 16.6679H56.9599L59.4962 12.819Z" fill="#75EEA5"/>
<path d="M67.7462 12.4933C68.0239 12.242 68.1629 11.8866 68.1629 11.4283C68.1629 10.963 68.0212 10.6283 67.7385 10.4233C67.4555 10.2183 67.0395 10.116 66.4912 10.116H65.7829V12.793C66.1092 12.845 66.3592 12.871 66.5329 12.871C67.0639 12.871 67.4685 12.7453 67.7462 12.4933ZM64.4805 9.12632H66.5119C67.4665 9.12632 68.1975 9.32098 68.7045 9.70965C69.2115 10.0986 69.4649 10.661 69.4649 11.397C69.4649 11.897 69.3512 12.334 69.1239 12.707C68.8962 13.0803 68.5795 13.367 68.1732 13.5663C67.7672 13.7663 67.2998 13.866 66.7722 13.866C66.4842 13.866 66.1542 13.8313 65.7829 13.7616V16.6679H64.4805V9.12632Z" fill="#75EEA5"/>
<path d="M70.7515 9.12632H72.0535V15.5533H75.1732L75.0639 16.6679H70.7515V9.12632Z" fill="#75EEA5"/>
<path d="M80.5275 15.3736C80.8922 15.129 81.1645 14.7923 81.3452 14.3633C81.5259 13.9346 81.6162 13.444 81.6162 12.892C81.6162 12.3503 81.5362 11.868 81.3765 11.444C81.2165 11.0203 80.9615 10.683 80.6109 10.431C80.2602 10.1793 79.8089 10.0533 79.2565 10.0533C78.7289 10.0533 78.2809 10.181 77.9129 10.4363C77.5449 10.6913 77.2688 11.0336 77.0848 11.4623C76.9008 11.8913 76.8089 12.3643 76.8089 12.8816C76.8089 13.4266 76.8955 13.9146 77.0692 14.345C77.2425 14.7756 77.5082 15.116 77.8662 15.366C78.2235 15.616 78.6662 15.741 79.1942 15.741C79.7185 15.741 80.1629 15.6183 80.5275 15.3736ZM77.1525 16.2983C76.6005 15.9823 76.1785 15.5386 75.8869 14.9673C75.5952 14.3963 75.4495 13.7323 75.4495 12.9753C75.4495 12.1803 75.6045 11.485 75.9155 10.8893C76.2262 10.294 76.6742 9.83397 77.2592 9.50897C77.8442 9.18464 78.5342 9.02197 79.3295 9.02197C80.0899 9.02197 80.7445 9.17931 81.2932 9.49331C81.8415 9.80797 82.2602 10.2496 82.5482 10.819C82.8365 11.3886 82.9805 12.0483 82.9805 12.7983C82.9805 13.6073 82.8235 14.3106 82.5092 14.9076C82.1949 15.5046 81.7472 15.965 81.1655 16.2876C80.5839 16.6106 79.9009 16.7721 79.1162 16.7721C78.3592 16.7721 77.7045 16.6143 77.1525 16.2983Z" fill="#75EEA5"/>
<path d="M86.4756 12.694C86.7912 12.694 87.0709 12.6326 87.3139 12.509C87.5569 12.386 87.7462 12.2123 87.8816 11.9883C88.0172 11.7643 88.0849 11.5046 88.0849 11.2096C88.0849 10.8313 87.9649 10.5543 87.7256 10.379C87.4859 10.2036 87.1369 10.116 86.6786 10.116H85.7359V12.694H86.4756ZM84.4339 9.12632H86.7932C87.6542 9.12632 88.3062 9.29831 88.7489 9.64198C89.1916 9.98565 89.4129 10.4773 89.4129 11.116C89.4129 11.5153 89.3329 11.867 89.1732 12.1706C89.0136 12.4746 88.8156 12.722 88.5796 12.9126C88.3432 13.1036 88.1006 13.246 87.8506 13.34L90.1682 16.6679H88.6579L86.6942 13.6783H85.7359V16.6679H84.4339V9.12632Z" fill="#75EEA5"/>
<path d="M91.1995 9.12632H95.6422L95.5172 10.1993H92.5015V12.2773H95.3452V13.2826H92.5015V15.5846H95.6785L95.5692 16.6679H91.1995V9.12632Z" fill="#75EEA5"/>
<path d="M100.476 9.12632H101.778V16.6679H100.476V9.12632Z" fill="#75EEA5"/>
<path d="M105.22 10.215H102.882L102.996 9.12632H108.866L108.746 10.215H106.522V16.6679H105.22V10.215Z" fill="#75EEA5"/>
<path d="M117.892 15.3736C118.257 15.129 118.529 14.7923 118.71 14.3633C118.89 13.9346 118.981 13.444 118.981 12.892C118.981 12.3503 118.901 11.868 118.741 11.444C118.581 11.0203 118.326 10.683 117.976 10.431C117.625 10.1793 117.173 10.0533 116.621 10.0533C116.093 10.0533 115.646 10.181 115.278 10.4363C114.909 10.6913 114.633 11.0336 114.45 11.4623C114.265 11.8913 114.173 12.3643 114.173 12.8816C114.173 13.4266 114.26 13.9146 114.434 14.345C114.607 14.7756 114.873 15.116 115.231 15.366C115.588 15.616 116.031 15.741 116.559 15.741C117.083 15.741 117.528 15.6183 117.892 15.3736ZM114.517 16.2983C113.965 15.9823 113.543 15.5386 113.252 14.9673C112.96 14.3963 112.814 13.7323 112.814 12.9753C112.814 12.1803 112.969 11.485 113.28 10.8893C113.591 10.294 114.039 9.83397 114.624 9.50897C115.209 9.18464 115.899 9.02197 116.694 9.02197C117.455 9.02197 118.109 9.17931 118.658 9.49331C119.206 9.80797 119.625 10.2496 119.913 10.819C120.201 11.3886 120.345 12.0483 120.345 12.7983C120.345 13.6073 120.188 14.3106 119.874 14.9076C119.56 15.5046 119.112 15.965 118.53 16.2876C117.949 16.6106 117.265 16.7721 116.481 16.7721C115.724 16.7721 115.069 16.6143 114.517 16.2983Z" fill="#75EEA5"/>
<path d="M121.798 9.12632H123.293L127.023 14.97C126.99 14.4146 126.976 13.9023 126.976 13.4336V9.12632H128.183V16.6679H126.736L122.95 10.7303C122.988 11.4043 123.007 12.0013 123.007 12.522V16.6679H121.798V9.12632Z" fill="#75EEA5"/>
<path d="M24.7352 27.5317H26.0052L25.3682 26.0504L24.7352 27.5317Z" fill="#75EEA5"/>
<path fill-rule="evenodd" clip-rule="evenodd" d="M33.6772 9.1665H19.8292C13.3059 9.1665 10.9199 11.5525 10.9199 18.0759V31.9241C10.9199 38.4472 13.3059 40.8332 19.8292 40.8332H33.6729C40.1962 40.8332 42.5866 38.4472 42.5866 31.9241V18.0759C42.5866 11.5525 40.2006 9.1665 33.6772 9.1665ZM24.4226 28.2785L24.0459 29.1405H23.1882L25.0122 25.0026H25.7532L27.5699 29.1405H26.6892L26.3172 28.2785H24.4226ZM38.2236 29.1376H39.0526V25.0026H38.2236V29.1376ZM34.9246 27.3608H36.4522V26.6073H34.9246V25.7596H37.1422V25.0052H34.0959V29.1401H37.2222V28.3859H34.9246V27.3608ZM31.6309 27.8494L30.6909 25.0024H30.0056L29.0656 27.8494L28.1509 25.0044H27.2569L28.6999 29.1424H29.3952L30.3366 26.4243L31.2776 29.1424H31.9792L33.4186 25.0044H32.5476L31.6309 27.8494ZM21.9229 27.3722C21.9229 28.0454 21.5886 28.405 20.9816 28.405C20.3712 28.405 20.0352 28.0352 20.0352 27.3436V25.0049H19.1952V27.3722C19.1952 28.5369 19.8422 29.2047 20.9702 29.2047C22.1092 29.2047 22.7626 28.5242 22.7626 27.338V25.0024H21.9229V27.3722ZM17.1909 25.0026H18.0306V29.1427H17.1909V27.4614H15.2939V29.1427H14.4539V25.0026H15.2939V26.6727H17.1909V25.0026ZM21.4822 14.4602C21.4822 17.3665 23.8469 19.7312 26.7532 19.7312C29.6596 19.7312 32.0242 17.3665 32.0242 14.4602H31.2796C31.2796 16.956 29.2492 18.9866 26.7532 18.9866C24.2572 18.9866 22.2269 16.956 22.2269 14.4602H21.4822Z" fill="#75EEA5"/>
<rect x="0.5" y="0.5" width="165.25" height="49" rx="6.25" stroke="#75EEA5"/>
</svg>
